<?xml version="1.0" encoding="UTF-8" standalone="no"?>
<svg
   xmlns:dc="http://purl.org/dc/elements/1.1/"
   xmlns:cc="http://creativecommons.org/ns#"
   xmlns:rdf="http://www.w3.org/1999/02/22-rdf-syntax-ns#"
   xmlns:svg="http://www.w3.org/2000/svg"
   xmlns="http://www.w3.org/2000/svg"
   xmlns:sodipodi="http://sodipodi.sourceforge.net/DTD/sodipodi-0.dtd"
   xmlns:inkscape="http://www.inkscape.org/namespaces/inkscape"
   viewBox="0 0 43 39"
   width="43px"
   height="39px"
   version="1.1"
   id="svg1423"
   sodipodi:docname="transaction.svg"
   inkscape:version="0.92.4 (5da689c313, 2019-01-14)">
  <metadata
     id="metadata1429">
    <rdf:RDF>
      <cc:Work
         rdf:about="">
        <dc:format>image/svg+xml</dc:format>
        <dc:type
           rdf:resource="http://purl.org/dc/dcmitype/StillImage" />
      </cc:Work>
    </rdf:RDF>
  </metadata>
  <defs
     id="defs1427" />
  <sodipodi:namedview
     pagecolor="#ffffff"
     bordercolor="#666666"
     borderopacity="1"
     objecttolerance="10"
     gridtolerance="10"
     guidetolerance="10"
     inkscape:pageopacity="0"
     inkscape:pageshadow="2"
     inkscape:window-width="3840"
     inkscape:window-height="2115"
     id="namedview1425"
     showgrid="false"
     inkscape:zoom="6.0512821"
     inkscape:cx="-16.34322"
     inkscape:cy="19.5"
     inkscape:window-x="885"
     inkscape:window-y="-13"
     inkscape:window-maximized="1"
     inkscape:current-layer="g1419" />
  <style
     id="style1405">.st1{fill-rule:evenodd;clip-rule:evenodd;fill:#037cff}</style>
  <switch
     id="switch1421">
    <g
       id="g1419">
      <g
         id="Forma_1_1_"
         opacity=".4">
        <g
           id="Forma_1">
          <g
             id="g1415">
            <path
               class="st1"
               d="M42.1 9.2c-.8-.3-1.7 0-2 .8l-.8 2c-2.9-7.2-10-12-18-12C12.2 0 4.4 6.1 2.4 14.9c-.2.8.3 1.6 1.1 1.8.8.2 1.6-.3 1.8-1.1C7 8.2 13.5 3 21.3 3c6.8 0 12.6 4 15.1 9.9l-1.7-.7c-.8-.3-1.7 0-2 .8-.3.8 0 1.7.8 2l5.2 2.2c.2.1.4.1.6.1.2 0 .4 0 .6-.1.4-.1.6-.4.8-.8l2.2-5.1c.3-.9 0-1.8-.8-2.1zm-2.7 13.1c-.8-.2-1.6.3-1.8 1.1-1.7 7.4-8.3 12.7-16 12.7-6.8 0-12.6-4-15.1-10l1.8.8c.8.3 1.7 0 2-.8.3-.8 0-1.7-.8-2l-5.2-2.2c-.8-.3-1.7 0-2 .8L.1 27.8c-.3.8 0 1.7.8 2 .2.1.4.1.6.1.6 0 1.2-.4 1.4-1l.8-1.8C6.6 34.3 13.6 39 21.6 39c9.2 0 16.9-6.1 18.9-14.9.2-.8-.3-1.6-1.1-1.8z"
               id="path1413" />
          </g>
        </g>
      </g>
    </g>
  </switch>
</svg>
